<svg xmlns="http://www.w3.org/2000/svg" xmlns:svg="http://www.w3.org/2000/svg" id="svg2" width="18" height="18" version="1.0"><defs id="defs4"><linearGradient id="linearGradient3195"><stop id="stop3197" offset="0" stop-color="#001aea" stop-opacity=".498"/><stop id="stop3199" offset="1" stop-color="#002fe9" stop-opacity="0"/></linearGradient><linearGradient id="linearGradient3181"><stop id="stop3191" offset="0" stop-color="#001aea" stop-opacity=".498"/><stop id="stop3185" offset="1" stop-color="#002fe9" stop-opacity="0"/></linearGradient><filter id="filter3877" width="2.105" height="2.175" x="-.552" y="-.588"><feGaussianBlur id="feGaussianBlur3879" stdDeviation=".326"/></filter><filter id="filter3881" width="2.1" height="2.17" x="-.55" y="-.585"><feGaussianBlur id="feGaussianBlur3883" stdDeviation=".324"/></filter><filter id="filter3885" width="2.1" height="2.17" x="-.55" y="-.585"><feGaussianBlur id="feGaussianBlur3887" stdDeviation=".324"/></filter><filter id="filter3889" width="2.105" height="2.175" x="-.552" y="-.588"><feGaussianBlur id="feGaussianBlur3891" stdDeviation=".326"/></filter></defs><metadata id="metadata7"/><g id="layer1"><g id="g3525" fill="#6ab100" fill-opacity="1" stroke="#0a0404" stroke-dasharray="none" stroke-miterlimit="4" stroke-opacity="1" stroke-width=".3" transform="matrix(0.9733519,-0.2293166,0.2293166,0.9733519,-3.033483,1.7621106)"><path id="text3506" fill="#6ab100" fill-opacity="1" stroke="#0a0404" stroke-dasharray="none" stroke-linecap="butt" stroke-linejoin="miter" stroke-miterlimit="4" stroke-opacity="1" stroke-width=".3" d="M 3.5711284,17.43093 C 6.1261974,16.072436 7.6673543,14.051257 7.6673543,12.096351 C 7.6673543,10.207713 6.3289811,8.9486184 4.3417056,8.9486184 C 2.5572129,8.9486184 1.1782838,10.075177 1.1782838,11.566207 C 1.1782838,12.858433 2.0705327,13.719919 3.8144686,13.98499 C 3.3683454,14.680805 2.8005503,15.244085 1.8271908,15.939899 L 3.5711284,17.43093" font-family="Bitstream Vera Sans" font-size="53.061" font-style="normal" font-weight="normal"/><path id="path3511" fill="#6ab100" fill-opacity="1" stroke="#0a0404" stroke-dasharray="none" stroke-linecap="butt" stroke-linejoin="miter" stroke-miterlimit="4" stroke-opacity="1" stroke-width=".3" d="M 8.5708472,17.559606 C 11.125916,16.201112 12.667073,14.179933 12.667073,12.225028 C 12.667073,10.336389 11.328699,9.0772948 9.3414241,9.0772948 C 7.5569308,9.0772948 6.1780022,10.203854 6.1780022,11.694883 C 6.1780022,12.987109 7.070251,13.848595 8.8141872,14.113668 C 8.3680643,14.809481 7.8002686,15.372761 6.8269087,16.068575 L 8.5708472,17.559606" font-family="Bitstream Vera Sans" font-size="53.061" font-style="normal" font-weight="normal"/></g><g id="g3529" fill="#6ab100" fill-opacity="1" stroke="#0a0404" stroke-dasharray="none" stroke-miterlimit="4" stroke-opacity="1" stroke-width=".3" transform="matrix(0.8776155,-0.4793652,0.4793652,0.8776155,-2.0925674,6.3465565)"><g id="g3533" fill="#6ab100" fill-opacity="1" stroke="#0a0404" stroke-dasharray="none" stroke-miterlimit="4" stroke-opacity="1" stroke-width=".3" transform="matrix(0.9735196,0.2286037,-0.2286037,0.9735196,1.4901311,-2.5784836)"><path id="path3517" fill="#6ab100" fill-opacity="1" stroke="#0a0404" stroke-dasharray="none" stroke-linecap="butt" stroke-linejoin="miter" stroke-miterlimit="4" stroke-opacity="1" stroke-width=".3" d="M 10.226832,0.83736305 C 7.671763,2.1958571 6.1306056,4.2170361 6.1306056,6.1719421 C 6.1306056,8.0605802 7.468979,9.3196749 9.456255,9.3196749 C 11.240747,9.3196749 12.619676,8.1931161 12.619676,6.7020861 C 12.619676,5.4098602 11.727428,4.5483741 9.983492,4.2833031 C 10.429615,3.5874881 10.99741,3.0242082 11.97077,2.3283942 L 10.226832,0.83736305" font-family="Bitstream Vera Sans" font-size="53.061" font-style="normal" font-weight="normal"/><path id="path3519" fill="#6ab100" fill-opacity="1" stroke="#0a0404" stroke-dasharray="none" stroke-linecap="butt" stroke-linejoin="miter" stroke-miterlimit="4" stroke-opacity="1" stroke-width=".3" d="M 15.226549,0.96603925 C 12.671481,2.3245333 11.130324,4.3457123 11.130324,6.3006173 C 11.130324,8.1892563 12.468698,9.4483509 14.455973,9.4483509 C 16.240466,9.4483509 17.619394,8.3217913 17.619394,6.8307623 C 17.619394,5.5385363 16.727146,4.6770503 14.983209,4.4119773 C 15.429332,3.7161643 15.997128,3.1528843 16.970488,2.4570703 L 15.226549,0.96603925" font-family="Bitstream Vera Sans" font-size="53.061" font-style="normal" font-weight="normal"/></g></g><path id="path3466" fill="#fff" fill-opacity="1" fill-rule="nonzero" stroke="#fff9f9" stroke-dasharray="none" stroke-linecap="round" stroke-linejoin="miter" stroke-miterlimit="4" stroke-opacity="1" stroke-width="0" d="M -1.2311234,4.3516784 A 0.71026349,0.66291261 0 1 1 -2.6516504,4.3516784 A 0.71026349,0.66291261 0 1 1 -1.2311234,4.3516784 z" filter="url(#filter3881)" transform="matrix(-2.3526407,-0.5386773,0.5386773,-2.3526407,-0.1710357,15.798211)"/><path id="path3468" fill="#fff" fill-opacity="1" fill-rule="nonzero" stroke="#fff9f9" stroke-dasharray="none" stroke-linecap="round" stroke-linejoin="miter" stroke-miterlimit="4" stroke-opacity="1" stroke-width="0" d="M -1.2311234,4.3516784 A 0.71026349,0.66291261 0 1 1 -2.6516504,4.3516784 A 0.71026349,0.66291261 0 1 1 -1.2311234,4.3516784 z" filter="url(#filter3877)" transform="matrix(-2.3422083,-0.5362885,0.5362885,-2.3422083,4.74989,14.66942)"/><path id="path3729" fill="#fff" fill-opacity="1" fill-rule="nonzero" stroke="#fff9f9" stroke-dasharray="none" stroke-linecap="round" stroke-linejoin="miter" stroke-miterlimit="4" stroke-opacity="1" stroke-width="0" d="M -1.2311234,4.3516784 A 0.71026349,0.66291261 0 1 1 -2.6516504,4.3516784 A 0.71026349,0.66291261 0 1 1 -1.2311234,4.3516784 z" filter="url(#filter3885)" transform="matrix(-2.3526407,-0.5386773,0.5386773,-2.3526407,-4.7993142,20.634394)"/><path id="path3731" fill="#fff" fill-opacity="1" fill-rule="nonzero" stroke="#fff9f9" stroke-dasharray="none" stroke-linecap="round" stroke-linejoin="miter" stroke-miterlimit="4" stroke-opacity="1" stroke-width="0" d="M -1.2311234,4.3516784 A 0.71026349,0.66291261 0 1 1 -2.6516504,4.3516784 A 0.71026349,0.66291261 0 1 1 -1.2311234,4.3516784 z" filter="url(#filter3889)" transform="matrix(-2.3422083,-0.5362885,0.5362885,-2.3422083,0.3001829,20.041317)"/></g></svg>